<svg xmlns="http://www.w3.org/2000/svg" xmlns:xlink="http://www.w3.org/1999/xlink" viewBox="0 0 512 512"><defs><style>.cls-1{isolation:isolate;}.cls-2{fill:#adb6c4;}.cls-3{fill:#fff;}.cls-4{fill:#d8dee8;}.cls-5{fill:url(#linear-gradient);}.cls-6{fill:url(#linear-gradient-2);}.cls-7{fill:url(#linear-gradient-3);}.cls-8{fill:#cbddf7;opacity:0.3;mix-blend-mode:multiply;}</style><linearGradient id="linear-gradient" x1="111.46" y1="262.58" x2="409.28" y2="262.58" gradientUnits="userSpaceOnUse"><stop offset="0" stop-color="#3dabfc"/><stop offset="1" stop-color="#007aff"/></linearGradient><linearGradient id="linear-gradient-2" x1="33.84" y1="262.8" x2="60.12" y2="262.8" gradientUnits="userSpaceOnUse"><stop offset="0" stop-color="#3dabfc"/><stop offset="0.96" stop-color="#007aff"/><stop offset="1" stop-color="#26264f"/></linearGradient><linearGradient id="linear-gradient-3" x1="452.51" y1="262.05" x2="479" y2="262.05" xlink:href="#linear-gradient"/></defs><title>Chatbot</title><g class="cls-1"><g id="Layer_2" data-name="Layer 2"><circle class="cls-2" cx="256" cy="256" r="256"/></g><g id="Layer_1" data-name="Layer 1"><path class="cls-3" d="M465.63,255.83A130.22,130.22,0,0,1,455.1,307c-19.46,45.79-64.45,82.79-122,100.46a260.27,260.27,0,0,1-73.49,11.32c-92.69,1.13-172.26-44.85-200.73-109.88a129.08,129.08,0,0,1-3.13-97.12c20.19-55.22,76.75-98.25,147.84-112.85a264.32,264.32,0,0,1,56-5.37c95.15.89,174.42,51.21,198.5,118.84A129.34,129.34,0,0,1,465.63,255.83Z"/><path class="cls-4" d="M356.25,343.17l-187.91,1.35c-38.49.28-69.83-31-69.83-69.94V233.44a31.65,31.65,0,0,1,31.62-31.76l263.2.58c16.81,0,30.41,14,30.41,31.21v40.27C423.74,311.81,393.6,342.9,356.25,343.17Z"/><path class="cls-4" d="M273,378.07l-26.78.26c-37.13.35-67.36-29.95-67.36-67.67h0c0-37.73,30.23-68.33,67.36-68.35H273c36.81,0,66.52,30.23,66.52,67.56h0C339.47,347.18,309.76,377.72,273,378.07Z"/><path class="cls-5" d="M361.26,311.47l-200.16,1a49.57,49.57,0,0,1-49.64-49.8V244.43A31.64,31.64,0,0,1,143,212.68l235.77.35c16.84,0,30.47,14,30.47,31.22v17.9C409.28,289.25,387.82,311.33,361.26,311.47Z"/><path class="cls-4" d="M220.08,268.24a16.14,16.14,0,0,0,3.1-9.24c0-10.86-11.38-19.66-25.43-19.66s-25.52,8.84-25.52,19.74a16.19,16.19,0,0,0,3.11,9.26Z"/><path class="cls-4" d="M347,268A16.14,16.14,0,0,0,350,258.8c0-10.77-11.19-19.5-25-19.5s-25.09,8.77-25.09,19.58a16.14,16.14,0,0,0,3.06,9.18Z"/><path class="cls-6" d="M60.12,230.06v65.42c0,5-.29,9.62-2,13.38-2.54,5.56-6.13,9.19-10.76,9.22-7.74,0-13.52-10-13.52-22.49V230.05c0-12.46,6.14-22.55,13.88-22.54,3,0,5.76,1.57,8.06,4.22.63.72.47,1.53,1,2.41C59.32,218.22,60.12,223.85,60.12,230.06Z"/><path class="cls-7" d="M465.77,315.82h0c-7.32,0-13.26-9.75-13.26-21.88V230.19c0-12.12,5.94-21.93,13.26-21.92h0c7.31,0,13.23,9.83,13.23,21.93v63.64C479,305.94,473.08,315.78,465.77,315.82Z"/><path class="cls-8" d="M274.53,378a303.32,303.32,0,0,0,58.53,29.37,260.27,260.27,0,0,1-73.49,11.32c-92.69,1.13-172.26-44.85-200.73-109.88-2.54,5.57-6.49,9.2-11.12,9.23-7.74,0-13.88-10-13.88-22.49V230.05c0-12.46,6.14-22.55,13.88-22.54,3,0,5.76,1.57,8.06,4.22C76,156.51,132.49,113.48,203.59,98.88c6.72,24,6.51,53.86-5.82,90.92-1.36,4.06-2.54,8.07-3.57,12-1,3.68-1.77,7.33-2.46,10.94a150.65,150.65,0,0,0-2.7,27.77,138.31,138.31,0,0,0,2.71,27.76c.12.56.23,1.1.36,1.63a141.54,141.54,0,0,0,16.7,42.32,174.11,174.11,0,0,0,24.26,31.81A232.64,232.64,0,0,0,274.53,378Z"/></g></g></svg>