<svg xmlns="http://www.w3.org/2000/svg" width="3172" height="893.333" viewBox="0 0 2379 670"><path fill="#fdb813" d="M286.6 87.83c37.64-3.5 76.25 3.6 110.04 20.6 42.72 21.2 77.47 57.9 96.35 101.68 16.6 38.1 21.02 81.3 12.8 122-6.87 34.5-22.96 67.07-46.05 93.6-22.7 26.2-52.14 46.5-84.74 58.27-40.5 14.72-85.66 16.1-127 4-38.5-11.17-73.4-34.1-99.14-64.82-22.2-26.36-37.6-58.43-44.12-92.3-7.7-39.6-3.55-81.5 12.18-118.67 15.54-37.06 42.32-69.27 75.86-91.4 27.9-18.5 60.45-29.95 93.8-32.94m-36.67 78.05c-6.34 3.27-13.12 6.62-17.22 12.73-6.96 9.55-6.73 23.64.78 32.8 6.14 7.87 16.82 11.77 26.6 9.78 6.6-1.28 12.08-5.5 18.36-7.7 12.27-4.5 25.83-5.45 38.63-2.88 10.94 2.17 21.26 8.88 26.22 19.08 5.3 10.03 4.93 21.66 4.83 32.67h65.83c.2-14.56-.78-29.3-4.9-43.33-4.8-17-14.22-32.87-27.84-44.23-14.6-12.37-33.26-19.15-52.1-21.52-26.85-3.3-54.93.3-79.2 12.6m-47.5 97.47c-3.33 1.6-5.57 5.1-5.62 8.8l-.25 55.15c1-5.76 1.67-11.63 3.65-17.16 4.68-14.33 15.18-26.33 28.13-33.85 17.64-10.32 38.47-13.88 58.7-13.78-25.36-.46-50.73-.05-76.1-.22-2.85.06-5.88-.26-8.5 1.06m93.05 31.22c-6.96 2.03-13.18 6.46-17.35 12.4-9.18 12.48-7.5 31.42 3.86 42 11.16 11.35 30.82 12.2 42.97 1.94 12.28-9.54 15.68-28.28 7.63-41.56-7.1-12.66-23.24-19.08-37.1-14.78m-98.9 43.07c.44 17.7 0 35.4.23 53.12.25 10.75 4.94 21.28 12.72 28.7 7.55 7.3 17.96 11.53 28.46 11.5l134.05-.01c11.35.03 23.15-3.48 31.36-11.6 7.1-6.86 10.66-16.8 10.55-26.57-.73 2.92-2.77 5.8-6.08 5.77l-46.92.07c-3.68.22-7.2-2.86-7.12-6.6-.22-5.6.01-11.2-.07-16.8-12.94 13.2-29.82 22.35-47.84 26.4-18.33 4.08-37.72 3.95-55.88-.96-17.3-4.7-33.52-15.1-43.03-30.57-6.28-9.7-9.03-21.1-10.43-32.4z"/><path d="M249.92 165.88c24.28-12.28 52.36-15.9 79.2-12.6 18.83 2.37 37.5 9.15 52.1 21.52 13.62 11.36 23.04 27.24 27.84 44.23 4.1 14.04 5.1 28.77 4.9 43.33h-65.83c.1-11 .46-22.64-4.83-32.67-4.96-10.2-15.28-16.9-26.22-19.08-12.8-2.57-26.36-1.62-38.63 2.88-6.28 2.2-11.75 6.42-18.36 7.7-9.78 2-20.46-1.9-26.6-9.78-7.5-9.17-7.74-23.26-.78-32.8 4.1-6.1 10.88-9.46 17.22-12.73zm519.02-8.06h54.8l.01 72 116.3.01-.01 35.74-116.3.01V345c.13 9.78 1.86 20.22 8.25 28 5.33 6.4 14 8.66 22.02 8.85 8.8.3 18.48-1.44 24.84-8.05 7.06-7.33 9.15-17.93 9.33-27.78l.04-51h51.82l-.05 56.05c-.33 17.2-5.5 34.82-16.92 48-13.38 15.8-33.82 24.2-54.12 26.07-15.82 1.42-32.05.84-47.4-3.5-15.9-4.7-30.96-13.9-40.35-27.82-10.5-15.35-12.9-34.6-12.28-52.78V157.82zm740 2.18h54.82v94.48c10.3-13 24.53-23.13 40.77-27.08 16.52-4.03 34.2-3.4 50.44 1.6 15.05 4.8 28.52 14.37 37.9 27.1 12.26 16.34 18 36.74 19.34 56.9 1.32 20.82-1 42.28-9.72 61.42-6.7 15.12-17.4 28.7-31.44 37.6-19.1 12.22-42.9 16-65.1 12.53-17.2-2.53-33.14-12.26-42.9-26.7-.44 7.6-.37 15.24-.55 22.87h-53.54V160m93.18 108.2c-11.12.9-22.17 6.02-28.8 15.2-7 9.37-9.82 21.1-11.02 32.56-1.1 11.78-1.28 23.97 2.45 35.34 4.15 12.93 13.6 24.4 26.18 29.85 15.75 6.6 35.6 3.9 47.9-8.34 12.6-11.93 17.55-29.85 17.2-46.8-.12-11.75-1.48-23.8-6.5-34.57-3.52-7.58-9.3-14.2-16.75-18.1-9.34-4.97-20.27-6-30.67-5.15zM637 225.93c19.3-1.82 39-1.76 58.04 2.23 15.65 3.4 31.46 10.43 41.22 23.64 10.68 14.3 13.18 32.84 13.12 50.2l-.04 118.77c-17.28-.07-34.55.01-51.82-.04-1.73-5.48-2.8-11.14-3.38-16.85-12.5 12.14-29.53 18.62-46.6 20.85-13.73 1.66-27.74 1.44-41.38-.94-14.24-2.4-28.43-9-36.9-21.12-10.15-13.57-10.35-31.73-7.13-47.7 2.85-14.5 12.95-27.03 25.96-33.82 16.15-8.76 34.67-10.93 52.54-13.8 12.47-2.03 25.22-2.8 37.38-6.43 4.84-1.5 10.02-3.78 12.42-8.55 2.87-5.75 2.9-13.4-1.32-18.52-4.83-5.57-12.23-7.97-19.27-9.24-10.97-1.54-22.57-1.7-33.08 2.23-10.25 4-16.04 14.7-17.86 25.07h-51.77c.55-15.94 4.92-32.75 16.55-44.28 13.97-14.1 34.14-19.6 53.32-21.73m46.73 106.8c-16.82 5.4-34.93 5.86-51.35 12.64-5.56 2.24-10.96 5.77-13.74 11.25-3.2 6.38-3.54 14.16-1.07 20.83 2.3 6.07 8.33 9.8 14.47 11.1 9.32 1.93 19.13 1.3 28.25-1.37 15.15-4.38 28.78-16.34 32.3-32.1 1.4-9.12.62-18.42 1.17-27.6-3.07 2.23-6.4 4.13-10.03 5.25zm361.8-106.9c28.24-3.08 58.33.48 82.7 16 18.28 11.3 31.73 29.67 37.7 50.24 5.48 18.74 5.95 38.85 2.15 57.95-3.9 18.98-13.6 36.9-28.14 49.85-17.22 15.48-40.13 23.47-62.96 25.38-28.7 2.42-59.14-2.28-83.1-19.13-11.96-8.34-21.74-19.75-28.1-32.88-9.25-18.9-11.85-40.53-9.7-61.3 2-19.25 9.23-38.2 22-52.9 16.86-19.6 42.1-30.44 67.47-33.2m4 43.03c-10.63 1.98-20.8 7.7-26.9 16.76-8.06 11.76-9.93 26.5-9.9 40.42.1 13.8 2.18 28.4 10.36 39.92 7.2 10.37 19.6 15.9 31.9 17.07 14.05 1.38 29.44-.07 41.05-8.82 10.7-8 15.76-21.27 17.43-34.12 1.65-13.68 1.43-27.85-2.57-41.13-3.2-10.67-10.18-20.5-20.27-25.6-12.6-6.4-27.43-6.85-41.1-4.5zm208.55-32.78c14.15-9.8 32.13-11.74 48.9-11.13 9.5.4 19.3 1.77 27.77 6.37 10.3 5.5 18.2 14.44 25.1 23.67 4.73-8.57 11.2-16.4 19.75-21.37 12.4-7.3 27.2-9.23 41.36-8.7 17.3.63 34.85 6.53 47.68 18.44 13.13 12.04 20.78 29.8 20.02 47.67v129.75h-54.38V305c0-10.7-2.88-21.92-10.45-29.8-9.97-10.87-27.83-11.95-40.04-4.37-8.44 5.4-14.36 14.38-16.55 24.1-1.63 6.56-1.3 13.36-1.3 20.05l-.01 105.77h-55.68l-.03-117.8c-.4-9.1-.66-19.17-6.56-26.65-5.4-6.7-14.52-8.26-22.63-8.66-9.88-.55-20.9.83-28.3 8.08-7.46 7.27-9.4 18.2-9.52 28.2l-.04 116.82c-18.53.01-37.06-.02-55.6.02l-.02-190.95h52.18l.04 27.65c4.82-8.1 10.56-15.88 18.3-21.4zm512.2 3.18c18.17-10.86 39.7-14.62 60.64-14.42 19.62.1 39.87 3.8 56.62 14.54 13.08 8.2 23.17 20.66 29.46 34.7 9.07 20.15 11.55 42.56 11.64 64.46-48.35-.01-96.7-.01-145.03 0 .6 7.7 2.08 15.44 5.5 22.42 4.87 10.24 13.78 18.6 24.6 22.22 10.28 3.4 21.58 3.44 32 .66 9.9-2.65 19.57-9.12 22.67-19.37l57.3.01c-5.1 15.3-13.97 29.5-26.52 39.75-16.76 13.93-38.56 20.74-60.15 21.48-18.64.53-37.64-1.15-55.26-7.6-14.72-5.35-28.2-14.68-37.35-27.5-10.5-14.4-15.53-32.05-17.4-49.58-2.07-20.07-1.37-40.96 6.14-59.92 6.68-17.3 19.1-32.42 35.13-41.84M1793.1 283c-4.76 6.96-6.93 15.32-7.76 23.6h85.98c-.48-8.35-2.44-16.8-7.15-23.84-8.57-13.62-25.82-19.37-41.3-17.62-11.92 1.16-23.08 7.98-29.78 17.87zm239.86-55.8c10.9-2.67 22.2-2.36 33.34-2.38v51.6c-11.28-1.54-22.88-1.7-34.03.8-9.14 2.05-18.06 6.6-23.76 14.24-6.4 8.37-8.44 19.18-8.5 29.5l-.03 99.8c-18.54-.02-37.08 0-55.62-.01V229.82l52.16-.02.03 22.8c8.53-12.54 21.64-21.83 36.4-25.4zm88.37 8.2c18.38-10 40.26-12.8 60.73-8.97 16.67 2.98 31.8 12.87 41.3 26.87l-.01-23.47 55.63-.03v194.15c-.04 15.37-3.7 30.94-12 44-7.5 12.3-18.6 22.13-31.22 28.92-15.87 8.56-33.8 12.8-51.72 13.95-22.6 1.35-45.83-1.74-66.47-11.4-14.54-6.76-27.45-17.5-35.55-31.45-6.67-11.04-9.6-24-9.6-36.8h51.74c.16 7.4 1.88 15.06 6.6 20.97 7 8.9 18.2 13.4 29.2 14.8 17.3 2.2 36.18-.7 50.07-11.9 8-6.22 13-16 13.28-26.13.2-11.1-.01-22.22.1-33.33-7.97 15.67-25.67 23.04-42.2 25.6-17.43 2.27-35.55 1.25-52.3-4.33-15.6-5.6-29.87-15.67-39.23-29.5-9.93-14.14-14.52-31.28-16.42-48.26-2.24-20.64-.06-42.13 8.8-61.07 8.05-17.94 21.85-33.37 39.27-42.6m44.22 34.38c-9.95 1.8-19.36 7.22-25.1 15.63-6.17 8.8-8.7 19.57-9.7 30.12-1.06 12.1-.74 24.65 3.53 36.17 4.3 11.78 13.2 22.05 24.72 27.2 18.05 7.82 41.2 3.5 54-11.88 11.5-13.02 13.2-31.48 11.7-48.1-1-11.86-3.63-24.1-10.7-33.92-4.97-7-12.46-12.05-20.7-14.32-9-2.48-18.56-2.55-27.7-.9zm-1963.14-6.45c2.63-1.32 5.66-1 8.5-1.06l76.1.22c-20.22-.1-41.05 3.46-58.7 13.78-12.95 7.52-23.45 19.52-28.13 33.85-1.98 5.53-2.65 11.4-3.65 17.16.5-18.38 0-36.77.25-55.15.05-3.7 2.3-7.2 5.62-8.8zm93.05 31.22c13.87-4.3 30 2.12 37.1 14.78 8.05 13.28 4.65 32.02-7.63 41.56-12.15 10.25-31.8 9.4-42.97-1.94-11.35-10.58-13.04-29.52-3.86-42 4.17-5.94 10.4-10.37 17.35-12.4zm-98.9 43.07c1.4 11.32 4.15 22.72 10.43 32.4 9.5 15.46 25.72 25.88 43.03 30.57 18.16 4.9 37.55 5.04 55.88.96 18.02-4.04 34.9-13.18 47.84-26.4.08 5.6-.15 11.2.07 16.8-.08 3.75 3.44 6.83 7.12 6.6l46.92-.07c3.3.03 5.35-2.85 6.08-5.77.1 9.78-3.46 19.7-10.55 26.57-8.2 8.12-20 11.63-31.36 11.6H237.98c-10.5.04-20.9-4.2-28.46-11.5-7.78-7.4-12.47-17.94-12.72-28.7l-.23-53.12zm1344.63 133.3h12.06l-.08 44.4c4.94-9.2 17.66-12.34 26.5-7.02 6.05 3.6 8.73 10.9 8.84 17.65l.05 30.83h-12.07c-.12-10.26.22-20.52-.16-30.77-.01-5-4.3-9.3-9.32-9.13-6.5-.77-13.3 3.9-13.6 10.7-.42 9.72-.04 19.47-.18 29.2h-12.05v-85.87zm-68 4.1l1.38.12c3.84 8.36 7.2 16.94 10.9 25.38 4.02 9.82 8.76 19.38 11.6 29.65 4.9-18.32 11.72-36.06 17.34-54.17 4.12-.13 8.26-.1 12.4-.1l-28.17 82.25c-.98-.65-1.9-1.4-2.22-2.55l-13.52-32.46c-3.16-7.7-6.68-15.3-9-23.3-2.68 8.3-6.4 16.22-9.76 24.26l-13.8 32.26c-.05 1.16-2.02 2.18-2.27.6l-28-81.07 13.22-.02 9.43 28.35c2.8 8.63 5.98 17.14 7.92 26.02 3.13-10.8 8.08-20.9 12.32-31.28 3.47-7.97 6.57-16.1 10.26-23.96zm436.7 1.5c8.85-2.93 19.46-2.32 27.03 3.53 10.74 8.2 11.57 26.3 1.56 35.37-3.77 3.52-8.83 5.1-13.82 5.93v10.75c-3.78 0-7.56 0-11.32-.05l.01-20c4.76-.02 9.98.26 14.1-2.6 6.77-4.36 7.57-15.3 1.6-20.66-4.04-3.68-10.24-3.8-15.1-1.9-3.7 1.42-6 4.82-8 8.06l-9.84-5.67c2.75-5.8 7.54-10.77 13.77-12.77zm54.8 4.47c1.02-5.13 7.67-7.62 11.9-4.64 3.7 2.18 4.38 7.25 2.6 10.9-2.54 5.4-5.64 10.5-8.38 15.77-2.07 0-4.12-.01-6.14 0l4.17-12.62c-2.96-2.1-5.3-5.66-4.15-9.42zm21.9 2.96c-.86-5.1 4.27-9.9 9.3-8.75 4.82.68 7.82 6.25 5.95 10.7-2.35 6-5.94 11.4-8.84 17.13l-6.13-.01 4.14-12.63c-2-1.72-4.26-3.6-4.43-6.45zm-615.1-7.63c1.85-.9 4.2-.22 6.25-.45l-4.16 12.72c2.4 1.75 4.68 4.2 4.48 7.42.24 5.3-5.75 9.43-10.63 7.38-4.5-1.5-6.3-7.14-4.28-11.25 2.5-5.4 5.37-10.66 8.34-15.82zm13.77 15.9c2.57-5.6 5.73-10.9 8.56-16.34l6.1.03-4.16 12.6c2.65 1.96 5.08 4.88 4.44 8.44-.4 5.24-6.74 8.58-11.33 6.1-4.05-1.77-5.58-7-3.62-10.84zm469.67-11.44l12.06-.01v26h13.3V517H1867l.05 24.07c.07 2.28.5 5.28 3.03 6.13 2.8 1 5.53-.6 7.92-1.96l5.72 8.1c-6.04 5.2-15.45 6.3-22.36 2.3-5.8-3.75-6.6-11.36-6.44-17.66l.02-20.97h-7.5l-.04-10.1 7.55-.1v-25.97zm-135.9 34.93c4.97-9.97 19.07-13.1 27.96-6.58 5.53 4.05 7.64 11.2 7.63 17.8l.01 29.84-12.06.01v-27.86c0-3.6-.53-7.7-3.56-10.05-3.67-2.72-8.84-2.48-12.9-.8-4.34 1.78-6.75 6.46-6.75 11-.16 9.24-.01 18.48-.06 27.72h-12.06v-50h12.1l-.3 8.93zm77.23-9.4c8.9-1.8 18.78.6 25.26 7.13 9.6 9.28 9.94 26.1.83 35.83-10.12 11.3-29.75 11.4-40.12.42-8.66-8.7-9.5-23.76-2-33.44 3.85-5.18 9.73-8.7 16.04-9.94m2.24 10.33c-12.4 2.48-14.66 21.05-5.1 28.1 6.13 4.48 16 3.4 20.34-3.1 3.77-5.73 3.8-13.8.08-19.56-3.22-4.96-9.77-6.73-15.32-5.45zm-193.77-9.86l13.38-.01c4.4 11.5 10.48 22.44 13.22 34.5 2.8-12.1 8.95-23.02 13.47-34.5l12.55.01-32.66 75.16-12.47.01 12.95-29.76-20.44-45.4zm311.74 34.85c4.78-1.63 10.43 2.15 10.46 7.28.43 4.46-3.44 8.63-7.9 8.58-4.2.2-8.13-3.3-8.25-7.52-.37-3.68 2.1-7.37 5.7-8.34z" fill="#231f20"/></svg>